<svg width="690" height="345" viewBox="0 0 690 345" fill="none" xmlns="http://www.w3.org/2000/svg">
<path d="M676.889 345C684.13 345 690.026 339.125 689.751 331.889C686.455 245.153 650.555 162.651 588.952 101.048C524.252 36.3481 436.5 6.90804e-06 345 0C253.5 -6.90803e-06 165.748 36.3481 101.048 101.048C39.445 162.651 3.54457 245.153 0.248952 331.889C-0.0259866 339.125 5.87017 345 13.1114 345C20.3526 345 26.1947 339.125 26.4922 331.89C29.7731 252.111 62.9054 176.276 119.591 119.59C179.373 59.8082 260.455 26.2228 345 26.2228C429.545 26.2228 510.627 59.8082 570.41 119.59C627.095 176.276 660.227 252.111 663.508 331.89C663.805 339.125 669.647 345 676.889 345Z" fill="#303030"/>
</svg>
